<!DOCTYPE svg PUBLIC "-//W3C//DTD SVG 1.1//EN" "http://www.w3.org/Graphics/SVG/1.1/DTD/svg11.dtd">
<!-- Uploaded to: SVG Repo, www.svgrepo.com, Transformed by: SVG Repo Mixer Tools -->
<svg height="800px" width="800px" version="1.1" id="Layer_1" xmlns="http://www.w3.org/2000/svg" xmlns:xlink="http://www.w3.org/1999/xlink" viewBox="0 0 448 448" xml:space="preserve" fill="#000000">
<g id="SVGRepo_bgCarrier" stroke-width="0"/>
<g id="SVGRepo_tracerCarrier" stroke-linecap="round" stroke-linejoin="round"/>
<g id="SVGRepo_iconCarrier"> <g transform="translate(0 -1020.36)" shape-rendering="auto" image-rendering="auto" color-rendering="auto" color-interpolation="sRGB"> <path style="fill:#af7997;" d="M64.031,1340.359c-13.158,0-24-10.938-24-24.094v-47.936H24c-13.158,0-24-10.846-24-24 c0-13.156,10.842-24,24-24h16.031v-48.031c0-13.154,10.842-23.938,24-23.938h15.937c13.158,0,24.094,10.783,24.094,23.938v48.061 h240v-48.061c0-13.154,10.811-23.938,23.969-23.938h15.937c13.158,0,23.969,10.783,23.969,23.938v48.031H424 c13.158,0,24,10.844,24,24c0,13.154-10.842,24-24,24h-16.062v47.936c0,13.156-10.811,24.094-23.969,24.094h-15.937 c-13.158,0-23.969-10.938-23.969-24.094v-47.936h-240v47.936c0,13.156-10.936,24.094-24.094,24.094H64.031z"/> <path style="fill:#e57788;" d="M368.031,1324.295h15.937c4.571,0,8.031-3.457,8.031-8.031v-143.969c0-4.572-3.461-8-8.031-8 h-15.937c-4.57,0-8.031,3.43-8.031,8v143.969C360,1320.834,363.461,1324.295,368.031,1324.295z"/> <g> <path style="fill:#FFFFFF;" d="M104.063,1252.392h240v-16.064h-240V1252.392z"/> <path style="fill:#FFFFFF;" d="M24,1252.33h16.031v-16.002H24c-4.571,0-8,3.43-8,8.002C16,1248.9,19.429,1252.33,24,1252.33z"/> <path style="fill:#FFFFFF;" d="M407.938,1252.33H424c4.57,0,8-3.43,8-8c0-4.572-3.429-8.002-8-8.002h-16.062V1252.33z"/> </g> <path style="fill:#e57788;" d="M64.031,1164.295h15.937c4.57,0,8.031,3.457,8.031,8.031v143.969c0,4.572-3.461,8-8.031,8H64.031 c-4.57,0-8.063-3.43-8.063-8v-143.969C55.969,1167.755,59.46,1164.295,64.031,1164.295z"/> <path style="fill:#ffa600;" d="M55.969,1244.23v72.063c0,4.57,3.493,8,8.063,8h15.937c4.57,0,8.031-3.43,8.031-8v-72.063 C88,1244.23,55.969,1244.23,55.969,1244.23z"/> <path style="fill:#ffa600;" d="M360,1244.359v-72.063c0-4.57,3.461-8,8.031-8h15.937c4.57,0,8.031,3.43,8.031,8v72.063H360z"/> <g> <path style="fill:#FFFFFF;" d="M104.063,1244.359v-8.031h240v8.031H104.063z"/> <path style="fill:#FFFFFF;" d="M16,1244.359C16,1244.347,16,1244.359,16,1244.359c0-4.572,3.43-8,8-8h16.031v8.031H16L16,1244.359 z"/> <path style="fill:#FFFFFF;" d="M407.938,1244.359v-8.031H424c4.571,0,8,3.428,8,8c0,0.01,0,0,0,0h-24.062V1244.359z"/> </g> </g> </g>
</svg>